<?xml version="1.0" encoding="UTF-8"?>
<svg id="Layer_1" data-name="Layer 1" xmlns="http://www.w3.org/2000/svg" viewBox="0 0 1080 1080">
  <defs>
    <style>
      .cls-1 {
        fill: #d34d18;
      }

      .cls-2 {
        fill: #2d2d2c;
      }
    </style>
  </defs>
  <g>
    <path class="cls-1" d="m195.81,431.49c1.79,0,3.58.02,5.36,0,7.89-.08,15.7.75,23.44,2.11,9.74,1.7,19.32,4.02,28.37,8.17,5.03,2.3,9.9,4.84,14.51,7.92,5.83,3.89,11.61,7.81,16.77,12.57,6.69,6.17,13.31,12.44,18.65,19.84,4.06,5.62,7.01,11.89,9.3,18.44,3.5,9.98,4.89,20.31,5.05,30.84.23,15.41-2.05,30.46-6.93,45.08-3.17,9.49-7.67,18.33-14.26,25.95-2.89,3.34-6.06,6.47-9.37,9.4-8.46,7.5-17.72,13.89-27.78,19.1-8.51,4.41-17.4,7.93-26.44,11.05-6.99,2.41-14.29,3.69-21.58,4.88-7.08,1.16-14.23,1.68-21.38,1.7-5.82.02-11.65-.53-17.46-.94-8.66-.61-17.04-2.71-25.35-5.03-14.21-3.97-27.41-10.13-39.22-19.02-9.14-6.88-16.77-15.17-22.92-24.88-5.53-8.73-9.63-18.05-12.65-27.88-1.92-6.24-2.89-12.69-3.56-19.18-.83-8.04-1.09-16.09-.19-24.15,1.19-10.61,3.55-20.95,7.47-30.88,1.85-4.7,4.8-8.86,8.07-12.73,9.67-11.42,20.87-21.07,33.77-28.69,8.16-4.83,16.49-9.38,25.29-12.97,4.67-1.9,9.55-3.26,14.32-4.94,7.88-2.77,15.97-4.66,24.29-5.43m17.46,6.66c-4.88.21-9.4.24-13.88.63-15.76,1.37-30.64,6.13-44.93,12.59-11.7,5.29-22.64,12.01-32.84,19.89-6.31,4.87-12.09,10.24-17.06,16.47-3.4,4.26-6.4,8.8-8.39,13.9-2.04,5.21-3.5,10.61-4.49,16.1-2.48,13.7-2.79,27.42-.26,41.17,1.36,7.36,3.67,14.43,6.45,21.34,3.09,7.67,7.64,14.55,12.62,21.13,1.45,1.92,2.87,3.88,4.52,5.62,7.53,7.97,16.18,14.43,26.05,19.35,10.23,5.1,20.98,8.54,32.05,11.22,5.62,1.36,11.34,1.87,17.05,2.53,6.82.79,13.68,1.04,20.51.49,7.98-.65,15.92-1.66,23.73-3.57,11.61-2.84,22.85-6.64,33.41-12.23,10.96-5.79,21.23-12.54,30.38-21.03,8.34-7.73,14.71-16.64,18.5-27.27,3.52-9.88,5.8-20.09,6.91-30.54.97-9.15.69-18.28-.5-27.39-.81-6.16-2.34-12.18-4.42-18.04-1.9-5.35-4.5-10.38-7.88-14.98-8.2-11.15-18.58-20-29.86-27.85-6.78-4.72-13.97-8.71-21.75-11.6-7.69-2.85-15.67-4.65-23.74-5.83-7.45-1.09-15.01-1.46-22.17-2.12Z"/>
    <path class="cls-1" d="m130.82,532.76c-.91,1.58-1.24,3.22-1.31,4.93-.18,3.91.43,7.72,1.27,11.52,1.24,5.57,3.36,10.8,6.13,15.76.94,1.68,1.91,3.36,3.63,4.48,1.5-.53,2.29-1.72,2.8-3,1.11-2.8,2.07-5.67,3.09-8.51.97-2.69,1.68-5.51,2.99-8.02,1.69-3.24,4.21-5.91,7.34-7.91,1.37-.88,2.73-1.65,4.4-2.01,5.22-1.12,11.45,4.21,9.59,10.29-1.16,3.78-2.29,7.56-3.58,11.29-1.67,4.83-3.81,9.45-6.01,14.07-1.35,2.84-2.07,5.99-3.03,9.01-1.93,6.05-3.94,12.07-7.21,17.55-2.23,3.75-4.9,7.1-8.92,9.26-2.8,1.5-5.66,1.78-8.55,1.09-2.14-.51-4.23-1.21-6.23-2.42-8.52-5.18-13.83-10.89-19.32-18.03-4.11-5.35-7.12-11.28-9.83-17.36-2.11-4.73-3.36-9.79-4.15-14.93-1.16-7.48-1.16-14.99-.45-22.5.71-7.51,2.17-14.89,5.46-21.74,2.29-4.76,5.6-8.5,11.02-10.17,3.11-.96,5.97-.7,8.82.3,2.69.95,5.26,2.25,7.86,3.44,4.21,1.93,8.33,4.09,12.63,5.82,4.02,1.61,8.2,2.85,12.34,4.14,3.65,1.14,6.96,2.87,9,6.12,2.63,4.19,1.96,9.09-2.75,11.49-1.5.77-3.45.89-5.2.9-1.6.01-3.22-.47-4.82-.81-3.57-.77-7.13-1.56-10.68-2.4-2.1-.5-4.18-1.1-6.33-1.67Zm23.13-2.7c.08-.16.16-.33.24-.49-.32-.39-.57-.93-.99-1.14-1.71-.88-3.41-1.83-5.22-2.43-4.92-1.64-9.89-3.15-14.57-5.44-4.53-2.21-9.07-4.43-13.64-6.56-1.32-.62-2.75-1.05-4.16-1.44-3.19-.89-5.72.38-7.54,2.84-1.93,2.62-3.42,5.52-4.27,8.73-1.49,5.63-2.54,11.3-2.97,17.13-.48,6.54-.36,13.02,1,19.43,1.59,7.47,4.22,14.51,8.3,21.09,2.88,4.65,6.16,8.93,9.83,12.92,1.98,2.15,4.3,4.05,6.67,5.79,2.24,1.64,4.66,3.07,7.15,4.32,2.01,1.01,4.06.62,5.88-.82,1.98-1.57,3.58-3.44,4.71-5.69.62-1.23,1.2-2.49,1.84-3.7,1.79-3.38,2.9-7,4.04-10.62,1.23-3.91,2.22-7.94,3.89-11.67,1.78-3.96,3.83-7.81,5.29-11.91,1.22-3.43,2.43-6.86,3.56-10.31.24-.74.67-1.66-.39-2.4-.29.08-.7.11-1,.3-2.75,1.76-4.94,4.02-6.06,7.15-.93,2.62-1.76,5.27-2.68,7.9-.73,2.09-1.44,4.19-2.3,6.23-1,2.38-2.58,4.41-4.55,6.04-2.39,1.97-5.21,2.45-8.09,1.14-2.28-1.04-4.21-2.58-5.69-4.68-2.97-4.22-5.07-8.83-6.83-13.66-2.26-6.19-3.4-12.55-3.45-19.1-.02-3.42.63-6.78,2.29-9.86,1.57-2.92,5.06-4.56,8.27-3.79,1.88.45,3.71,1.1,5.6,1.54,4.76,1.1,9.54,2.14,14.32,3.18.48.1,1,.01,1.5.01Z"/>
    <path class="cls-1" d="m195.85,587.07c2.18.23,3.61-.5,4.83-1.86,1.66-1.86,3.77-3,6.2-3.46,2.98-.57,5.77-.15,7.93,2.18,1.46,1.58,3.1,2.22,5.22,1.55.53-.91-.02-1.62-.4-2.36-1.41-2.76-2.96-5.47-4.19-8.3-1.41-3.22-2.14-6.64-2.03-10.18.03-.91.29-1.84.59-2.71.99-2.83,3.5-4.15,6.29-2.99,2.05.85,4.04,2.02,5.8,3.38,5.2,4.04,9.63,8.77,12.44,14.84,1.14,2.46,2.36,4.88,3.56,7.31.5,1.01.99,2.03,1.58,3,1.21,1.97,2.6,3.83,3.7,5.86,1.95,3.61,2.84,9.11-.13,13-2.26,2.97-5.25,4.94-8.65,6.31-7.12,2.86-14.69,3.95-22.19,5.21-5.92,1-11.7,2.53-17.37,4.45-5.77,1.96-11.63,3.37-17.71,3.87-3.85.32-7.61-.01-11.27-1.26-4.49-1.54-6.15-3.93-6.19-8.68-.04-4.63,1.03-9.09,2.27-13.48,1.84-6.54,3.78-13.06,5.98-19.48,2.2-6.43,4.79-12.73,7.2-19.09.85-2.24,1.56-4.55,2.53-6.74,2.38-5.34,5.56-10.07,11.17-12.51,1.6-.7,3.43-.97,5.19-1.19,3.76-.47,6.35,1.71,8.54,4.31,1.55,1.83,1.78,4.18,1.01,6.41-1.16,3.36-2.38,6.72-3.88,9.94-2.62,5.63-4.95,11.36-6.71,17.31-.5,1.7-.84,3.45-1.3,5.37Zm-24.53,29.84c3.2,1.5,5.61,1.98,8.86,1.71,4.98-.4,9.9-1.27,14.57-3.02,8.34-3.12,17.01-4.79,25.75-6.24,5.07-.84,10.11-1.74,14.88-3.73,1.8-.75,3.48-1.62,4.93-3.02,1.33-1.29,1.56-2.66.85-4.2-.68-1.47-1.55-2.86-2.35-4.27-1.61-2.81-3.26-5.6-4.85-8.43-2-3.58-3.82-7.26-5.96-10.75-1.53-2.49-3.93-4.26-6.34-6.03.45,1.85,1.05,3.58,1.87,5.21.92,1.83,2.22,3.5,3.02,5.38.77,1.82,1.45,3.81,1.58,5.76.23,3.42-1.89,5.93-5.18,7.08-4.52,1.59-8.68,1.49-12.28-2.12-.48-.48-1.12-.8-1.83-1.3-.98.63-2.05,1.14-2.88,1.91-3.26,2.99-7.21,4.07-11.5,4.42-3.33.27-6.03-2.66-6.06-5.43-.01-1.39-.12-2.81.08-4.17,1.14-7.49,3.91-14.46,6.97-21.34,1.76-3.94,3.4-7.93,5.06-11.8-1.81-1.53-3.63-1.63-5.24-.37-2.87,2.23-5.15,4.91-6.42,8.39-1.2,3.27-2.54,6.48-3.8,9.73-1.57,4.04-3.26,8.04-4.65,12.14-2.04,6-3.97,12.04-5.75,18.12-1.17,4.01-2.05,8.11-2.94,12.19-.31,1.4-.28,2.88-.39,4.21Z"/>
    <path class="cls-1" d="m259.14,556.69c.88-1.02.57-1.7.02-2.31-.46-.52-.95-1.04-1.51-1.45-2.25-1.65-3.49-3.97-3.93-6.58-.49-2.89.12-5.7,1.69-8.25.27-.43.47-.9.91-1.77-2.74.93-5.08,1.67-7.38,2.53-3.7,1.37-7.38,2.81-11.06,4.24-1.88.73-3.8,1.37-5.62,2.22-3.63,1.7-7.43,1.71-11.19,1.01-4.74-.88-7.22-5.82-5.25-10.26,1.16-2.62,2.79-4.9,5.14-6.76,4.87-3.84,10.39-6.36,16.12-8.53,8.95-3.4,18.25-5.57,27.45-8.12,5.69-1.58,11.32-3.35,16.99-4.96,2.7-.77,5.41-.77,7.85.87.94.63,1.86,1.42,2.52,2.33,1.62,2.25,2.6,4.83,2.49,7.61-.21,5.18-.43,10.38-.99,15.53-.89,8.16-1.94,16.31-3.19,24.42-.63,4.12-1.67,8.2-2.82,12.21-.95,3.29-2.62,6.25-5.2,8.67-2.69,2.52-5.88,3.79-9.43,4.09-5.66.47-10.91-.65-15.63-4.12-5.95-4.36-12.09-8.46-18.12-12.71-1.52-1.07-3.03-2.19-4.39-3.45-2.6-2.41-3.92-5.43-3.39-8.98.37-2.48,1.72-4.63,3.94-5.76,4.82-2.46,9.14-3.36,14.36,1.3,2.42,2.16,5.17,3.97,7.79,5.91.55.4,1.18.69,1.85,1.07Zm-36.19-17.66c2.63.27,4.89-.13,7.1-1.01,3.25-1.29,6.49-2.57,9.75-3.82,3.69-1.42,7.37-2.87,11.1-4.19,3.09-1.09,6.23-1.92,9.59-1.38,1.5.24,2.58.88,3.47,2.07,1.55,2.06,1.9,4.21.72,6.52-.92,1.79-1.96,3.53-2.88,5.32-.97,1.88-.78,2.86.7,4.37.6.61,1.2,1.22,1.83,1.79,2.61,2.34,3.39,5.33,2.89,8.65-.7,4.59-5.3,8.68-10.97,6.29-1.49-.63-2.95-1.43-4.26-2.38-2.58-1.86-5.05-3.89-7.57-5.84-.55-.43-1.09-.9-1.71-1.2-1.15-.57-3.33,0-3.77.99-.57,1.29.5,1.96,1.26,2.71.22.21.5.37.75.55,6.85,4.85,13.75,9.63,20.53,14.58,2.93,2.14,6.12,2.96,9.63,2.82,3.86-.16,7.38-2.71,8.55-6.2,1.9-5.67,2.99-11.53,3.86-17.43.61-4.14,1.12-8.29,1.55-12.45.62-5.94,1.19-11.88,1.63-17.83.13-1.75-.13-3.56-.38-5.31-.24-1.65-.73-1.99-2.4-1.69-1.45.25-2.86.72-4.27,1.13-7.09,2.05-14.14,4.24-21.26,6.15-9.36,2.52-18.74,4.96-27.37,9.53-3.19,1.69-6.37,3.47-8.08,7.28Z"/>
    <path class="cls-1" d="m180.42,478.91c-1.17.61-2.25.86-2.83,1.54-2.66,3.07-6.28,3.47-9.94,3.82-2.17.21-4.34.36-6.5.59-.5.05-.99.29-1.67.51,1.25,2.42,3.07,4.1,5.08,5.54,5.04,3.63,10.12,7.21,15.25,10.71,3.3,2.25,5.18,5.33,6.32,9.09,1.28,4.22-2.02,7.8-5.14,8.57-2.34.57-4.65.38-6.94-.1-4.26-.88-8.35-2.35-12.35-4.04-.64-.27-1.24-.68-1.9-.9-5.6-1.82-10.45-5.14-15.57-7.89-3.4-1.82-6.53-4.15-9.46-6.75-3.96-3.52-7.76-7.16-11.08-11.27-2.7-3.35-2.99-6.39-.99-9.64,2.05-3.35,4.64-6.21,8.03-8.29,1.17-.72,2.28-1.55,3.42-2.33,4.75-3.27,9.93-5.74,15.31-7.71,5.53-2.03,11.2-3.69,16.77-5.61,2.12-.73,4.19-1.64,6.22-2.6,3.39-1.6,6.88-2.88,10.56-3.6,2.66-.52,5.25-.18,7.8.71,3.78,1.32,5.79,4.12,6.42,7.87.39,2.35.41,4.78.43,7.18.06,5.27.09,10.55,0,15.82-.08,4.3-.97,8.47-3.01,12.3-.61,1.15-1.39,2.28-2.35,3.15-2.78,2.52-6.31,1.73-8.16-1.52-2.03-3.57-2.19-7.55-2.96-11.41-.22-1.11-.47-2.22-.79-3.74Zm8.68,4.9c.23,0,.45,0,.68,0,.11-2.23.29-4.46.31-6.69.05-4.57.02-9.15,0-13.72,0-1.47-.01-2.95-.21-4.41-.35-2.56-1.08-3.05-3.71-3.12-2.58-.06-4.87.96-7.16,1.87-6.71,2.67-13.42,5.35-20.37,7.38-4.71,1.37-9.2,3.26-13.64,5.32-3.75,1.74-7.1,4.07-10.43,6.44-2.13,1.52-4.04,3.34-5.58,5.52,2.35,3.83,5.47,6.76,8.61,9.63,2.34,2.14,4.83,4.18,7.51,5.86,6.93,4.32,14.2,7.98,21.78,11.06,3.27,1.33,6.55,2.42,10.02,2.95.48.07.97,0,2.02,0-1.05-1.41-1.64-2.52-2.52-3.31-1.32-1.18-2.84-2.15-4.3-3.18-4.69-3.32-9.4-6.61-14.07-9.96-2.31-1.66-4-3.94-5.3-6.41-2.21-4.2-1.21-8.28,3.31-10.53.76-.38,1.58-.74,2.4-.85,2.92-.39,5.85-.71,8.78-.98,2.02-.18,3.94-.39,5.57-1.89,1.11-1.03,2.44-1.92,3.83-2.51,1.81-.77,3.76-.74,5.73-.35,3.41.66,5.04,2.2,5.62,5.58.36,2.1.73,4.21,1.09,6.31Z"/>
    <path class="cls-1" d="m233.13,493.43c-.22-.36-.32-.7-.53-.83-2.48-1.44-4.93-2.96-7.5-4.23-1.92-.95-3.97-.86-5.73.54-2.06,1.63-4.07,3.33-6.05,5.07-2.74,2.4-5.4,4.89-8.14,7.29-1.08.95-3.47.64-4.69-.52-1.33-1.25-1.82-2.76-1.73-4.61.25-4.82.94-9.55,2.24-14.2,1.94-6.88,4.34-13.57,8.43-19.53,4.62-6.74,12.59-10.72,21.43-9.29,3.31.53,6.41,1.71,9.48,3.06,8.4,3.7,15.49,9.46,23.05,14.47,2.91,1.93,5.83,3.87,8.61,5.99,1.52,1.16,3.23,2.46,4.03,4.1,1.93,3.95,1.38,7.86-2.8,11.11-1.98,1.54-4.25,2.76-6.49,3.92-6.04,3.14-12.13,6.18-18.21,9.24-5.83,2.93-11.61,5.99-17.54,8.69-5.65,2.58-11.46,4.82-17.8,5.12-3.24.15-6.46.05-9.07-2.16-1.84-1.55-3.54-3.34-3.37-6.03.16-2.51,1.67-4.15,3.86-5.11,3.48-1.51,7.03-2.85,10.53-4.33,5.14-2.18,10.26-4.41,15.39-6.62.83-.36,1.65-.74,2.6-1.16Zm-25.92-4.63c.38-.03.48,0,.52-.04.34-.31.69-.63,1-.97,2.51-2.71,5.44-4.75,8.82-6.34,3.86-1.82,7.54-1.67,11.21.09,2.16,1.03,4.21,2.33,6.2,3.67,1.79,1.21,3.56,2.5,5.08,4.02,2.22,2.22,2.2,5.94-.02,8.18-1.29,1.3-2.8,2.51-4.44,3.32-3.4,1.69-6.93,3.12-10.43,4.6-1.85.78-3.78,1.4-5.64,2.16-2.82,1.15-5.61,2.36-8.42,3.55.54.32.99.36,1.43.32,6.27-.69,11.99-3.04,17.58-5.77,3.38-1.65,6.7-3.42,10.07-5.1,7.64-3.8,15.29-7.57,22.92-11.37,1.53-.76,3.06-1.55,4.51-2.45,1.94-1.21,1.98-2.13.26-3.54-.42-.34-.88-.63-1.33-.94-5.04-3.51-10.09-6.99-15.1-10.54-5.65-4.01-11.32-7.96-17.99-10.16-3.33-1.1-6.75-1.5-10.08-.35-3.59,1.24-6.37,3.62-8.47,6.86-2.48,3.82-4.03,8.03-5.4,12.31-.88,2.76-1.53,5.6-2.31,8.5Z"/>
  </g>
  <g>
    <path class="cls-2" d="m447.2,570.45c-10.8,10.65-24.75,15.6-39.9,15.6-39,0-55.5-26.85-55.65-54.15-.15-27.45,17.7-55.35,55.65-55.35,14.25,0,27.75,5.4,38.55,16.05l-13.2,12.75c-6.9-6.75-16.2-9.9-25.35-9.9-25.35,0-36.3,18.9-36.15,36.45.15,17.4,10.2,35.55,36.15,35.55,9.15,0,19.5-3.75,26.4-10.65l13.5,13.65Z"/>
    <path class="cls-2" d="m512.45,509.7h17.55v73.95h-17.25l-.9-10.8c-4.2,8.7-15.75,12.9-24,13.05-21.9.15-38.1-13.35-38.1-39.3s16.95-38.85,38.55-38.7c9.9,0,19.35,4.65,23.55,12l.6-10.2Zm-44.4,36.9c0,14.1,9.75,22.5,21.9,22.5,28.8,0,28.8-44.85,0-44.85-12.15,0-21.9,8.25-21.9,22.35Z"/>
    <path class="cls-2" d="m568.1,488.85v21h20.4v15.75h-20.55v31.95c0,7.05,3.9,10.5,9.6,10.5,2.85,0,6.15-.9,8.85-2.25l5.1,15.6c-5.25,2.1-9.6,3-15.15,3.15-16.05.6-26.55-8.55-26.55-27v-31.95h-13.8v-15.75h13.8v-19.05l18.3-1.95Z"/>
    <path class="cls-2" d="m665.6,574.2c-8.55,8.4-17.55,11.7-28.5,11.7-21.45,0-39.3-12.9-39.3-39.15s17.85-39.15,39.3-39.15c10.5,0,18.6,3,26.7,10.95l-11.55,12.15c-4.35-3.9-9.75-5.85-14.85-5.85-12.3,0-21.3,9-21.3,21.9,0,14.1,9.6,21.6,21,21.6,5.85,0,11.7-1.65,16.2-6.15l12.3,12Z"/>
    <path class="cls-2" d="m692,478.66v41.1c6.6-8.55,14.7-11.1,23.1-11.1,21,0,30.3,14.25,30.3,36v39h-18.3v-38.85c0-13.5-7.05-19.2-16.8-19.2-10.8,0-18.3,9.15-18.3,20.25v37.8h-18.3v-105h18.3Z"/>
    <path class="cls-2" d="m854.29,478.8v60.15c0,31.05-19.05,46.95-45.45,46.95s-46.65-15.3-46.65-46.95v-60.15h19.65v60.15c0,18.9,10.8,28.95,27.15,28.95s25.65-10.95,25.65-28.95v-60.15h19.65Z"/>
    <path class="cls-2" d="m870.65,614.55v-104.85h17.1l1.2,10.2c5.7-8.25,15.6-11.85,24-11.85,22.8,0,37.95,16.95,37.95,38.7s-13.65,38.7-37.35,38.7c-7.8,0-19.35-2.4-24.6-10.5v39.6h-18.3Zm61.95-67.8c0-11.55-7.8-21-21-21s-21,9.45-21,21,8.55,21,21,21,21-9.45,21-21Z"/>
  </g>
</svg>